# xmcd
#
# Track frame offsets:
#	150
#	12986
#	26936
#	43352
#	54614
#	66164
#	79964
#	98342
#	113339
#	134039
#	150297
#	164913
#	198360
#	212010
#	225099
#	239598
#	260135
#	273704
#	285510
#	303147
#	322071
#	334985
#
# Disc length: 4765 seconds
#
# Revision: 0
# Processed by: cddbd v1.5.2PL0 Copyright (c) Steve Scherf et al.
# Submitted via: audiograbber 1.83.01
#
DISCID=44129b16
DTITLE=Various Artist - Longhaired Rednecks CD4
DYEAR=2018
DGENRE=Country
TTITLE0=Mel Tillis - I Got The Hoss
TTITLE1=Johnny Paycheck - The Spirits Of St. Louis
TTITLE2=Tompall Glaser - Drinking Them Beers
TTITLE3=Gene Watson - Pick The Wildwood Flower
TTITLE4=Waylon and Willie - Mammas Don't Let Your Babies Grow Up To Be Cowboys
TTITLE5=Joe Ely - Treat Me Like A Saturday Night
TTITLE6=Hank Williams Jr. - Family Tradition
TTITLE7=David Allan Coe - Jack Daniels, If You Please
TTITLE8=Tanya Tucker - Texas (When I Die)
TTITLE9=Willie Nelson - Whiskey River
TTITLE10=Don Williams - Tulsa Time
TTITLE11=Terry Allen - New Delhi Freight Train
TTITLE12=John Anderson - Your Lying Blue Eyes
TTITLE13=Gene Watson - The Beer At Dorsey's Bar
TTITLE14=Hank WIlliams Jr. - Whiskey Bent And Hell Bound
TTITLE15=Merle Haggard - I Think I'll Just Stay Here And Drink
TTITLE16=Waylon Jennings - Don't You Think This Outlaw Bit's Done Got Out Of Ha
TTITLE16=nd
TTITLE17=Willie Nelson - On The Road Again
TTITLE18=Terry Allen - Amarillo Highway
TTITLE19=Bobby Bare - Tequila Sheila
TTITLE20=Conway Twitty - Tight Fittin' Jeans
TTITLE21=Ed Bruce - The Last Cowboy Song
EXTD=
EXTT0=
EXTT1=
EXTT2=
EXTT3=
EXTT4=
EXTT5=
EXTT6=
EXTT7=
EXTT8=
EXTT9=
EXTT10=
EXTT11=
EXTT12=
EXTT13=
EXTT14=
EXTT15=
EXTT16=
EXTT17=
EXTT18=
EXTT19=
EXTT20=
EXTT21=
PLAYORDER=
